<svg id="visual" viewBox="0 0 900 600" width="900" height="600" xmlns="http://www.w3.org/2000/svg" xmlns:xlink="http://www.w3.org/1999/xlink" version="1.1"><rect x="0" y="0" width="900" height="600" fill="#0f0f10"></rect><path d="M0 267L16.7 293.3C33.3 319.7 66.7 372.3 100 363C133.3 353.7 166.7 282.3 200 234.2C233.3 186 266.7 161 300 167.5C333.3 174 366.7 212 400 234C433.3 256 466.7 262 500 277.3C533.3 292.7 566.7 317.3 600 303.3C633.3 289.3 666.7 236.7 700 245.2C733.3 253.7 766.7 323.3 800 369.3C833.3 415.3 866.7 437.7 883.3 448.8L900 460L900 601L883.3 601C866.7 601 833.3 601 800 601C766.7 601 733.3 601 700 601C666.7 601 633.3 601 600 601C566.7 601 533.3 601 500 601C466.7 601 433.3 601 400 601C366.7 601 333.3 601 300 601C266.7 601 233.3 601 200 601C166.7 601 133.3 601 100 601C66.7 601 33.3 601 16.7 601L0 601Z" fill="#202223" stroke-linecap="round" stroke-linejoin="miter"></path></svg>