<svg id="visual" viewBox="0 0 960 540" width="960" height="540" xmlns="http://www.w3.org/2000/svg" xmlns:xlink="http://www.w3.org/1999/xlink" version="1.1"><rect x="0" y="0" width="960" height="540" fill="#fff"></rect><g transform="translate(460.3439060187116 250.22120285445612)"><path d="M97 -126C144.4 -99.1 214.4 -95.7 255.5 -61.3C296.6 -26.8 308.8 38.7 294.2 99.3C279.6 159.9 238.3 215.4 184.8 241.7C131.3 268 65.6 265 3.6 260C-58.4 255 -116.8 248.1 -163.9 219.7C-210.9 191.3 -246.7 141.5 -257.3 88.4C-267.9 35.3 -253.3 -21.1 -229.6 -68.6C-206 -116.2 -173.2 -154.8 -133.4 -184.2C-93.7 -213.6 -46.8 -233.8 -11 -218.6C24.8 -203.5 49.6 -152.9 97 -126" fill="#0077B6"></path></g></svg>