<svg id="visual" viewBox="0 0 960 540" width="960" height="540" xmlns="http://www.w3.org/2000/svg" xmlns:xlink="http://www.w3.org/1999/xlink" version="1.1"><rect x="0" y="0" width="960" height="540" fill="#f8f8f8"></rect><g transform="translate(-61.17979357539633 12.254053459915639)"><path d="M141.9 -209.4C213.8 -204.2 322.5 -226.6 395 -196.3C467.5 -166 503.8 -83 469.8 -19.6C435.9 43.8 331.8 87.7 276 146.8C220.2 206 212.6 280.5 174.6 301.8C136.7 323 68.3 291 17.3 261.1C-33.8 231.1 -67.5 203.3 -122.8 192C-178.1 180.8 -254.9 186.1 -273.8 156.9C-292.8 127.7 -253.9 63.8 -270.9 -9.8C-288 -83.5 -360.9 -167 -360.3 -228.1C-359.8 -289.1 -285.6 -327.7 -213.3 -332.6C-141 -337.6 -70.5 -308.8 -17.8 -278C35 -247.3 70 -214.6 141.9 -209.4" fill="#0077B6"></path></g></svg>